<svg id="ico-how-can-we-help-you_" fill="#777777" data-name="ico-how-can-we-help-you?" xmlns="http://www.w3.org/2000/svg" width="24" height="24.001" viewBox="0 0 24 24.001">
  <path id="Path_458" data-name="Path 458" d="M15.283,6.545l.174,0a9.676,9.676,0,0,1,9.57,9.746c0,.055,0,.11,0,.165a9.741,9.741,0,0,1-9.736,9.57l-.179,0a9.741,9.741,0,0,1,.172-19.481Zm.007,17.482a7.741,7.741,0,0,0,7.736-7.6c0-.046,0-.092,0-.138t0-.009a7.673,7.673,0,0,0-7.593-7.732h-.151a7.741,7.741,0,0,0-.136,15.481Z" transform="translate(-5.545 -6.545)"/>
  <path id="Path_459" data-name="Path 459" d="M31.056,32.761a1,1,0,0,1-.691-.277l-6.556-6.261a1,1,0,1,1,1.381-1.446l6.556,6.261a1,1,0,0,1-.691,1.723Z" transform="translate(-8.056 -8.76)"/>
</svg>
