<svg id="ico-directions" xmlns="http://www.w3.org/2000/svg" width="22.892" height="24" fill="#a0a0a0" viewBox="0 0 22.892 24">
  <path id="Path_14965" data-name="Path 14965" d="M741.111,529.06a9.127,9.127,0,0,1,6.489,15.588l-4.786,4.766a2.418,2.418,0,0,1-3.405,0l-1.63-1.623-3.146-3.142a9.13,9.13,0,0,1,6.478-15.589Zm0,19.209a.563.563,0,0,0,.4-.163l4.784-4.764a7.324,7.324,0,1,0-10.36,0l3.146,3.142,1.629,1.622A.563.563,0,0,0,741.111,548.269Zm0-13.341a3.262,3.262,0,1,1-3.267,3.257A3.266,3.266,0,0,1,741.111,534.928Zm0,4.677a1.416,1.416,0,1,0-1.421-1.42A1.422,1.422,0,0,0,741.111,539.606Z" transform="translate(-729.404 -529.06)" fill="#777"/>
  <path id="Path_14966" data-name="Path 14966" d="M741.226,535.17a3.171,3.171,0,1,1-3.166,3.166A3.17,3.17,0,0,1,741.226,535.17Zm0,4.5a1.325,1.325,0,1,0-1.32-1.329A1.326,1.326,0,0,0,741.226,539.665Z" transform="translate(-729.509 -529.281)" fill="#777"/>
  <path id="Path_14967" data-name="Path 14967" d="M741.226,535.17a3.171,3.171,0,1,1-3.166,3.166A3.17,3.17,0,0,1,741.226,535.17Zm0,4.5a1.325,1.325,0,1,0-1.32-1.329A1.326,1.326,0,0,0,741.226,539.665Z" transform="translate(-729.509 -529.281)" fill="#777"/>
  <path id="Path_14968" data-name="Path 14968" d="M750.327,553.686H730.944a1.743,1.743,0,0,1-1.629-1.035,1.549,1.549,0,0,1,.337-1.7l3.39-3.5a1.819,1.819,0,0,1,1.3-.53h4.28l1.883,1.819a.59.59,0,0,0,.8,0l1.883-1.819h3.745a1.831,1.831,0,0,1,1.281.508l.021.021,3.4,3.5a1.554,1.554,0,0,1,.322,1.705A1.749,1.749,0,0,1,750.327,553.686Zm-18.969-1.846h18.566l-2.979-3.073h-3.007l-1.346,1.3a2.436,2.436,0,0,1-3.365,0l-1.346-1.3h-3.542Z" transform="translate(-729.192 -529.686)" fill="#777"/>
</svg>
