<svg id="ico-floors" xmlns="http://www.w3.org/2000/svg" fill="#a0a0a0" width="16.003" height="15.997" viewBox="0 0 16.003 15.997">
  <path id="Path_295" data-name="Path 295" d="M71.1,78.989a3.577,3.577,0,0,1-1.439-.275l-5.693-2.595a1.155,1.155,0,0,1,0-2.238l3.183-1.428a.615.615,0,1,1,.5,1.122L64.479,75l5.692,2.595a2.684,2.684,0,0,0,1.858,0L77.72,75l-.011-.005-3.075-1.479a.615.615,0,1,1,.534-1.108l3.069,1.476a1.155,1.155,0,0,1-.006,2.236l-5.691,2.594A3.58,3.58,0,0,1,71.1,78.989Zm0-8a3.575,3.575,0,0,1-1.439-.276l-5.692-2.595a1.155,1.155,0,0,1,0-2.238l5.74-2.618a3.689,3.689,0,0,1,2.776,0l5.743,2.617h0a1.156,1.156,0,0,1,0,2.238l-5.692,2.595A3.575,3.575,0,0,1,71.1,70.994ZM64.479,67,70.171,69.6a2.68,2.68,0,0,0,1.858,0L77.718,67h0l-5.744-2.618a2.523,2.523,0,0,0-1.753,0Z" transform="translate(-63.096 -62.997)" fill="#777"/>
  <path id="Path_296" data-name="Path 296" d="M71,210.072a3.574,3.574,0,0,1-1.439-.276L63.868,207.2a1.155,1.155,0,0,1,0-2.238l3.187-1.43a.615.615,0,1,1,.5,1.122l-3.18,1.427,5.691,2.594a2.681,2.681,0,0,0,1.858,0l5.692-2.594h0l-3.181-1.426a.615.615,0,1,1,.5-1.122l3.188,1.428h0a1.155,1.155,0,0,1-.005,2.239l-5.69,2.594A3.575,3.575,0,0,1,71,210.072Z" transform="translate(-63 -198.078)" fill="#777"/>
</svg>
