<svg id="ico-lock-access-settings" xmlns="http://www.w3.org/2000/svg" width="24" height="24" viewBox="0 0 24 24">
  <path id="Path_14821" data-name="Path 14821" d="M-237.934,28h-2.013a1,1,0,0,1-.509-.139,1,1,0,0,1-.409-.421c-.259-.507-.766-1.722-1.161-2.717l-.988-.41c-.839.387-2.085.943-2.634,1.141a1,1,0,0,1-1.086-.218l-1.43-1.432a1,1,0,0,1-.241-1.023l.005-.016c.177-.54.668-1.742,1.093-2.728l-.416-1c-.979-.36-2.177-.825-2.7-1.077l-.015-.007a1,1,0,0,1-.569-.9v-2a1,1,0,0,1,.537-.887l.017-.009.01-.005c.51-.259,1.706-.76,2.7-1.156l.414-1c-.437-.943-.955-2.12-1.146-2.667l0-.013-.006-.018a1,1,0,0,1,.24-1.023l1.418-1.424A1,1,0,0,1-245.79,6.6l.013,0c.531.172,1.743.664,2.747,1.095l.982-.408c.359-.983.826-2.187,1.076-2.7l.007-.014a1,1,0,0,1,.9-.568h2.025a1,1,0,0,1,.878.521l.009.016.013.025c.233.457.71,1.577,1.16,2.715l.989.407c.85-.391,2.117-.956,2.653-1.148l.01,0a1,1,0,0,1,1.058.229l1.429,1.426a1,1,0,0,1,.242,1.025l0,.014c-.178.544-.677,1.757-1.1,2.734l.417,1.011c.984.36,2.185.826,2.7,1.075l.027.014.017.009a1,1,0,0,1,.537.887v2a1,1,0,0,1-.553.894l-.016.008c-.509.255-1.728.767-2.7,1.155l-.412,1c.486,1.044.965,2.154,1.143,2.655l0,.009a1,1,0,0,1-.23,1.059l-1.422,1.421a1,1,0,0,1-1.023.241l-.012,0c-.545-.175-1.76-.674-2.741-1.1l-.984.4c-.35.954-.8,2.1-1.048,2.641A1,1,0,0,1-237.934,28Zm-1.4-2h.738c.228-.553.544-1.373.841-2.189l0,0,.076-.2a1,1,0,0,1,.557-.578l1.786-.736a1,1,0,0,1,.8.016l.175.08c.8.348,1.635.694,2.2.914l.509-.509c-.226-.544-.573-1.332-.944-2.121l-.093-.2a1,1,0,0,1-.021-.806l.74-1.805a1,1,0,0,1,.559-.551l.192-.076c.7-.275,1.595-.646,2.209-.916v-.707c-.56-.231-1.386-.548-2.178-.835l-.006,0-.2-.074a1,1,0,0,1-.579-.557l-.745-1.807a1,1,0,0,1,.005-.775l.084-.2c.352-.811.7-1.642.916-2.211l-.513-.512c-.59.249-1.442.63-2.144.956l-.009,0-.186.084a1,1,0,0,1-.793.014l-1.785-.734a1,1,0,0,1-.55-.559l-.077-.2c-.339-.867-.677-1.675-.914-2.21h-.736c-.229.556-.544,1.374-.836,2.182l-.074.2a1,1,0,0,1-.555.58l-1.783.741a1,1,0,0,1-.8-.013l-.176-.08c-.8-.345-1.64-.691-2.215-.912l-.509.511c.231.556.585,1.354.944,2.124l.093.2a1,1,0,0,1,.019.806l-.744,1.8a1,1,0,0,1-.555.548l-.19.076c-.8.314-1.642.663-2.21.915v.714c.6.249,1.472.581,2.178.837l.007,0,.2.074a1,1,0,0,1,.576.555l.745,1.8a1,1,0,0,1-.006.779l-.084.2c-.342.787-.689,1.627-.912,2.2l.513.514c.558-.235,1.377-.6,2.143-.956l.015-.007.188-.084a1,1,0,0,1,.79-.01l1.781.739a1,1,0,0,1,.547.557l.076.194C-239.92,24.612-239.576,25.443-239.329,26Z" transform="translate(251 -4)"/>
  <path id="Path_14822" data-name="Path 14822" d="M-235.785,23.609h-.058a4.485,4.485,0,0,1-4.292-4.661,4.476,4.476,0,0,1,1.3-2.981,4.464,4.464,0,0,1,2.971-1.317h.093a4.486,4.486,0,0,1,4.3,4.656,4.476,4.476,0,0,1-1.3,2.983,4.463,4.463,0,0,1-2.97,1.321Zm-.026-6.961a2.469,2.469,0,0,0-1.6.727,2.481,2.481,0,0,0-.72,1.652,2.483,2.483,0,0,0,2.34,2.581,2.468,2.468,0,0,0,1.607-.729,2.481,2.481,0,0,0,.718-1.653A2.484,2.484,0,0,0-235.812,16.648Z" transform="translate(247.825 -7.129)"/>
  <path id="Path_14823" data-name="Path 14823" d="M-235.818,14.729a4.419,4.419,0,0,1,4.408,4.4,4.417,4.417,0,0,1-4.391,4.431h-.029a4.418,4.418,0,0,1-4.408-4.406,4.388,4.388,0,0,1,1.283-3.124,4.375,4.375,0,0,1,3.115-1.3h.023Zm.012,6.83a2.414,2.414,0,0,0,2.4-2.424,2.415,2.415,0,0,0-2.408-2.406h-.018a2.388,2.388,0,0,0-1.7.71,2.4,2.4,0,0,0-.7,1.71,2.415,2.415,0,0,0,2.408,2.411Z" transform="translate(247.845 -7.146)"/>
</svg>
