<svg id="ico-lock" xmlns="http://www.w3.org/2000/svg" width="16" fill="#a0a0a0" height="20" viewBox="0 0 18.399 24">
  <path id="Union_42" data-name="Union 42" d="M.787,23.18A1.006,1.006,0,0,1,0,22.2V10.772a1,1,0,0,1,.8-.98c.631-.135,1.291-.256,1.967-.357V5.556A5.479,5.479,0,0,1,4.349,1.688,5.578,5.578,0,0,1,8.177.015C8.522.008,8.868,0,9.2,0s.675.008,1.014.015a5.57,5.57,0,0,1,3.833,1.672,5.483,5.483,0,0,1,1.583,3.869V9.435c.68.1,1.339.223,1.972.357a1,1,0,0,1,.8.98V22.2a1.006,1.006,0,0,1-.8.98A40.829,40.829,0,0,1,9.2,24,40.968,40.968,0,0,1,.787,23.18ZM2,11.593v9.787A39.725,39.725,0,0,0,9.2,22a39.655,39.655,0,0,0,7.2-.619V11.593a39.655,39.655,0,0,0-7.2-.619A39.725,39.725,0,0,0,2,11.593ZM8.249,2.01A3.567,3.567,0,0,0,4.759,5.556V9.187c1.433-.143,2.925-.215,4.438-.215s3,.072,4.43.212V5.556a3.559,3.559,0,0,0-3.48-3.546C9.825,2,9.51,2,9.2,2S8.563,2,8.249,2.01Z" transform="translate(0.002)" fill="#777"/>
  <path id="Path_14829" data-name="Path 14829" d="M-523.217-169.482" transform="translate(532.415 175.702)" fill="#777"/>
</svg>
