<svg id="radio" xmlns="http://www.w3.org/2000/svg" width="32" height="32" viewBox="0 0 32 32">
  <g id="handle" fill="none">
    <path d="M16,0A16,16,0,1,1,0,16,16,16,0,0,1,16,0Z" stroke="none"/>
    <path d="M 16 2 C 12.26045989990234 2 8.744749069213867 3.456249237060547 6.100500106811523 6.100500106811523 C 3.456249237060547 8.744749069213867 2 12.26045989990234 2 16 C 2 19.73954010009766 3.456249237060547 23.2552490234375 6.100500106811523 25.89949989318848 C 8.744749069213867 28.54375076293945 12.26045989990234 30 16 30 C 19.73954010009766 30 23.2552490234375 28.54375076293945 25.89949989318848 25.89949989318848 C 28.54375076293945 23.2552490234375 30 19.73954010009766 30 16 C 30 12.26045989990234 28.54375076293945 8.744749069213867 25.89949989318848 6.100500106811523 C 23.2552490234375 3.456249237060547 19.73954010009766 2 16 2 M 16 0 C 24.8365592956543 0 32 7.163440704345703 32 16 C 32 24.8365592956543 24.8365592956543 32 16 32 C 7.163440704345703 32 0 24.8365592956543 0 16 C 0 7.163440704345703 7.163440704345703 0 16 0 Z" stroke="none" fill="#000"/>
  </g>
  <g id="ico-check" transform="translate(8.999 10)">
    <path id="checkmark-outline" d="M620.253,54.384a1.346,1.346,0,0,1-.971-.414l-3.351-3.491a1.346,1.346,0,1,1,1.942-1.864l2.313,2.409,6.855-8.16A1.346,1.346,0,0,1,629.1,44.6L621.284,53.9a1.346,1.346,0,0,1-.986.48Z" transform="translate(-615.556 -42.384)"/>
  </g>
</svg>
