<svg id="Locked" xmlns="http://www.w3.org/2000/svg" xmlns:xlink="http://www.w3.org/1999/xlink" width="40" height="40" viewBox="0 0 40 40">
  <defs>
    <linearGradient id="linear-gradient" x1="0.176" y1="0.929" x2="0.71" y2="0.05" gradientUnits="objectBoundingBox">
      <stop offset="0" stop-color="#47a01a"/>
      <stop offset="1" stop-color="#54bf1d"/>
    </linearGradient>
  </defs>
  <g id="Locked-2" data-name="Locked">
    <g id="Group_6582" data-name="Group 6582">
      <g id="Placeholder-light1">
        <g id="core-shape1">
          <path id="Path_1211" data-name="Path 1211" d="M20,2.5a17.505,17.505,0,0,0-6.811,33.626A17.505,17.505,0,0,0,26.811,3.874,17.388,17.388,0,0,0,20,2.5M20,0A20,20,0,1,1,0,20,20,20,0,0,1,20,0Z" fill="url(#linear-gradient)"/>
        </g>
      </g>
    </g>
    <g id="ico-unlocked" transform="translate(12.5 10)">
      <g id="Group_5936" data-name="Group 5936">
        <path id="Union_43" data-name="Union 43" d="M.662,19.314A.832.832,0,0,1,0,18.5V8.98a.836.836,0,0,1,.662-.815c.527-.112,1.076-.211,1.641-.3V4.633A4.572,4.572,0,0,1,3.624,1.406,4.675,4.675,0,0,1,6.819.014C7.105,0,7.391,0,7.669,0s.561,0,.846.014a4.677,4.677,0,0,1,3.2,1.392,4.575,4.575,0,0,1,1.32,3.227.833.833,0,0,1-1.667,0,2.966,2.966,0,0,0-2.9-2.955c-.264-.006-.532-.011-.791-.011s-.529,0-.795.011a2.966,2.966,0,0,0-2.9,2.955V7.662c1.193-.119,2.438-.18,3.7-.18a34.384,34.384,0,0,1,7.007.683.836.836,0,0,1,.659.815V18.5a.833.833,0,0,1-.659.814A34.142,34.142,0,0,1,7.669,20,34.128,34.128,0,0,1,.662,19.314ZM1.668,9.666v8.151a33.635,33.635,0,0,0,6,.516,33.562,33.562,0,0,0,6-.516V9.666a33.258,33.258,0,0,0-6-.517A33.276,33.276,0,0,0,1.668,9.666Z" fill="url(#linear-gradient)"/>
      </g>
    </g>
  </g>
</svg>
