<svg id="ico-lock-user-access" xmlns="http://www.w3.org/2000/svg" width="31.523" height="22.987" viewBox="0 0 31.523 22.987">
  <path id="Union_70" data-name="Union 70" d="M15624.739,9118.977a1,1,0,0,1-1-1,12.209,12.209,0,0,1,2.364-7.212,8.917,8.917,0,0,1,2.643-2.4,7.447,7.447,0,0,1,1.232-.569,6.9,6.9,0,0,1-2.194-5.1,6.246,6.246,0,1,1,12.457,0,6.9,6.9,0,0,1-2.194,5.1,7.447,7.447,0,0,1,1.232.569,8.929,8.929,0,0,1,2.643,2.4,12.181,12.181,0,0,1,2.363,7.212,1,1,0,0,1-1,1Zm2.956-7a10.072,10.072,0,0,0-1.9,5.006h16.439a10.04,10.04,0,0,0-1.908-5.006,5.638,5.638,0,0,0-4.413-2.532h-3.8A5.649,5.649,0,0,0,15627.7,9111.973Zm2.085-9.273a4.255,4.255,0,1,0,4.232-4.712A4.5,4.5,0,0,0,15629.78,9102.7Zm-16.019,12.47a1,1,0,0,1-1-1,8.6,8.6,0,0,1,1.669-5.088,6.155,6.155,0,0,1,2.32-1.939,5.065,5.065,0,0,1-1.244-3.35,4.561,4.561,0,1,1,9.1,0,5.058,5.058,0,0,1-1.248,3.354,4.765,4.765,0,0,1,.683.377.961.961,0,0,1,.157.125l.675.668a1,1,0,1,1-1.4,1.421l-.6-.589a2.9,2.9,0,0,0-1.527-.455h-2.575a3.521,3.521,0,0,0-2.741,1.59,6.465,6.465,0,0,0-1.189,2.886h5.831a1,1,0,0,1,0,2Zm3.741-11.379a2.57,2.57,0,1,0,2.552-2.874A2.734,2.734,0,0,0,15617.5,9103.79Z" transform="translate(-15612.76 -9095.989)"/>
</svg>
