<svg id="Group_7565" data-name="Group 7565" xmlns="http://www.w3.org/2000/svg" width="48" height="48" viewBox="0 0 48 48">
  <g id="Ellipse_914" data-name="Ellipse 914" fill="none" stroke="rgba(0,0,0,0.15)" stroke-width="3">
    <circle cx="24" cy="24" r="24" stroke="none"/>
    <circle cx="24" cy="24" r="22.5" fill="none"/>
  </g>
  <g id="ico-floors" transform="translate(12 12)">
    <path id="Path_295" data-name="Path 295" d="M75.1,87a5.363,5.363,0,0,1-2.159-.413L64.4,82.689a1.734,1.734,0,0,1,0-3.359l4.775-2.143a.923.923,0,1,1,.756,1.684L65.169,81.01,73.706,84.9a4.024,4.024,0,0,0,2.787,0L85.03,81.01,85.013,81,80.4,78.783a.923.923,0,0,1,.8-1.663l4.6,2.215a1.733,1.733,0,0,1-.01,3.355l-8.537,3.894A5.368,5.368,0,0,1,75.1,87Zm0-12a5.359,5.359,0,0,1-2.159-.414L64.4,70.69a1.734,1.734,0,0,1,0-3.358l8.61-3.928a5.53,5.53,0,0,1,4.164,0l8.615,3.928h0A1.734,1.734,0,0,1,85.8,70.69l-8.539,3.894A5.361,5.361,0,0,1,75.1,75Zm-9.93-5.987L73.706,72.9a4.018,4.018,0,0,0,2.787,0l8.534-3.892h0l-8.617-3.929a3.782,3.782,0,0,0-2.63,0Z" transform="translate(-63.094 -62.997)" fill="#777"/>
    <path id="Path_296" data-name="Path 296" d="M75,213.373a5.36,5.36,0,0,1-2.159-.414L64.3,209.065a1.734,1.734,0,0,1,0-3.359l4.781-2.146a.923.923,0,0,1,.756,1.684l-4.771,2.141,8.537,3.893a4.019,4.019,0,0,0,2.787,0l8.538-3.894h0l-4.772-2.14a.923.923,0,1,1,.755-1.685L85.7,205.7l0,0a1.734,1.734,0,0,1-.008,3.36l-8.535,3.892A5.361,5.361,0,0,1,75,213.373Z" transform="translate(-63 -195.374)" fill="#777"/>
  </g>
</svg>
