<svg xmlns="http://www.w3.org/2000/svg" width="20" height="20" viewBox="0 0 34 34">
  <g id="Group_7769" data-name="Group 7769" transform="translate(-319 -119)">
    <path id="Path_2" data-name="Path 2" d="M96,80A16,16,0,1,0,80,96,16,16,0,0,0,96,80Z" transform="translate(256 56)" fill="#fff" stroke="#000" stroke-miterlimit="10" stroke-width="2"/>
    <g id="ico-menu" transform="translate(327 130)">
      <path id="Union_5" data-name="Union 5" d="M15448,9176h-8a1,1,0,0,1,0-2h8a1,1,0,0,1,0,2Zm2-5h-12a1,1,0,0,1,0-2h12a1,1,0,0,1,0,2Zm2-5h-16a1,1,0,0,1,0-2h16a1,1,0,0,1,0,2Z" transform="translate(-15435 -9164)"/>
    </g>
  </g>
</svg>
