<svg id="Group_7799" data-name="Group 7799" xmlns="http://www.w3.org/2000/svg" width="48" height="48" viewBox="0 0 48 48">
  <g id="Ellipse_914" data-name="Ellipse 914" fill="none" stroke="rgba(0,0,0,0.15)" stroke-width="2">
    <circle cx="24" cy="24" r="24" stroke="none"/>
    <circle cx="24" cy="24" r="23" fill="none"/>
  </g>
  <g id="ico-default-home" transform="translate(10 12)">
    <path id="Path_14842" data-name="Path 14842" d="M1006.963-195.846" transform="translate(-999.569 206.753)" fill="#777"/>
    <g id="Group_5951" data-name="Group 5951" transform="translate(-999.569 206.753)">
      <path id="Union_28" data-name="Union 28" d="M16963.836,8914.253a1,1,0,0,1-1-1v-6.072h-4.148v6.072a1,1,0,0,1-1,1h-5.27a2.772,2.772,0,0,1-2.754-2.768v-10.6l-1.461,1.178a1,1,0,0,1-1.258-1.562l4.465-3.586v-4.686a1,1,0,0,1,1-1h3.52a1,1,0,0,1,1,1v.258l1.957-1.578a2.981,2.981,0,0,1,3.75,0l11.941,9.6a.991.991,0,0,1,.156,1.4,1.018,1.018,0,0,1-.777.373,1,1,0,0,1-.629-.223l-1.461-1.176v10.594a2.777,2.777,0,0,1-2.762,2.768Zm0-9.072a1,1,0,0,1,1,1v6.074h4.262a.78.78,0,0,0,.77-.77v-12.2l-8.477-6.811a1.021,1.021,0,0,0-1.258,0l-3.559,2.867a.994.994,0,0,1-1.414-.166l-.023-.023a1.05,1.05,0,0,1-.207-.621v-1.3h-1.52v4.164a.985.985,0,0,1-.375.777l-1.371,1.1v12.207a.773.773,0,0,0,.762.77h4.262v-6.074a1,1,0,0,1,1-1Z" transform="translate(-15946.999 -9097.003)" fill="#777"/>
      <path id="Path_14844" data-name="Path 14844" d="M1006.963-195.846" fill="#777"/>
    </g>
  </g>
</svg>
