<svg id="Group_8625" data-name="Group 8625" xmlns="http://www.w3.org/2000/svg" width="48" height="48" viewBox="0 0 48 48">
  <g id="Group_7799" data-name="Group 7799">
    <g id="Ellipse_914" data-name="Ellipse 914" fill="none" stroke="rgba(0,0,0,0.15)" stroke-width="2">
      <circle cx="24" cy="24" r="24" stroke="none"/>
      <circle cx="24" cy="24" r="23" fill="none"/>
    </g>
    <g id="ico-user" transform="translate(13 12)">
      <path id="Union_66" data-name="Union 66" d="M1,24a1,1,0,0,1-1-1,12.753,12.753,0,0,1,2.465-7.53,9.3,9.3,0,0,1,2.752-2.5,7.5,7.5,0,0,1,1.362-.621A7.191,7.191,0,0,1,4.235,6.981,6.754,6.754,0,0,1,10.717,0,6.754,6.754,0,0,1,17.2,6.981a7.2,7.2,0,0,1-2.344,5.372,7.361,7.361,0,0,1,1.364.621,9.279,9.279,0,0,1,2.752,2.5A12.754,12.754,0,0,1,21.437,23a1,1,0,0,1-1,1Zm3.066-7.328A10.579,10.579,0,0,0,2.051,22H19.386a10.616,10.616,0,0,0-2.011-5.325A5.975,5.975,0,0,0,12.7,14H8.73A5.963,5.963,0,0,0,4.065,16.672ZM6.237,6.981a4.757,4.757,0,0,0,4.479,4.986A4.76,4.76,0,0,0,15.2,6.981,4.759,4.759,0,0,0,10.717,2,4.756,4.756,0,0,0,6.237,6.981Z" transform="translate(0.002)" fill="#777"/>
    </g>
  </g>
</svg>
