<svg id="ico-directions" xmlns="http://www.w3.org/2000/svg" width="22.36" height="23.442" viewBox="0 0 22.36 23.442">
  <path id="Path_14965" data-name="Path 14965" d="M740.9,529.06a8.915,8.915,0,0,1,6.338,15.226l-4.675,4.655a2.362,2.362,0,0,1-3.326,0l-1.592-1.585-3.072-3.069A8.918,8.918,0,0,1,740.9,529.06Zm0,18.763a.55.55,0,0,0,.391-.159l4.673-4.653a7.154,7.154,0,1,0-10.119,0l3.072,3.069,1.591,1.585A.55.55,0,0,0,740.9,547.823Zm0-13.031a3.186,3.186,0,1,1-3.191,3.181A3.19,3.19,0,0,1,740.9,534.792Zm0,4.569a1.383,1.383,0,1,0-1.388-1.388A1.389,1.389,0,0,0,740.9,539.361Z" transform="translate(-729.463 -529.06)" fill="#6a6a6a"/>
  <path id="Path_14966" data-name="Path 14966" d="M741.153,535.17a3.1,3.1,0,1,1-3.092,3.092A3.1,3.1,0,0,1,741.153,535.17Zm0,4.391a1.294,1.294,0,1,0-1.289-1.3A1.3,1.3,0,0,0,741.153,539.561Z" transform="translate(-729.708 -529.418)" fill="#6a6a6a"/>
  <path id="Path_14967" data-name="Path 14967" d="M741.153,535.17a3.1,3.1,0,1,1-3.092,3.092A3.1,3.1,0,0,1,741.153,535.17Zm0,4.391a1.294,1.294,0,1,0-1.289-1.3A1.3,1.3,0,0,0,741.153,539.561Z" transform="translate(-729.708 -529.418)" fill="#6a6a6a"/>
  <path id="Path_14968" data-name="Path 14968" d="M749.836,553.529H730.9a1.7,1.7,0,0,1-1.591-1.011,1.513,1.513,0,0,1,.329-1.665l3.311-3.415a1.777,1.777,0,0,1,1.272-.517h4.181l1.839,1.777a.576.576,0,0,0,.781,0l1.839-1.777h3.658a1.788,1.788,0,0,1,1.252.5l.021.021,3.318,3.422a1.518,1.518,0,0,1,.315,1.666A1.708,1.708,0,0,1,749.836,553.529Zm-18.528-1.8h18.134l-2.91-3h-2.937l-1.315,1.27a2.379,2.379,0,0,1-3.287,0l-1.315-1.27h-3.46Z" transform="translate(-729.192 -530.087)" fill="#6a6a6a"/>
</svg>
